PathFileType	4	(X/Y/Z)	D:\TRACE\spot_10-12-23\spot_arm_body_motion_3_5-platform.trc
DataRate	CameraRate	NumFrames	NumMarkers	Units	OrigDataRate	OrigDataStartFrame	OrigNumFrames
100.00	100.00	      72	5	mm	100.00	6126	      7000
Frame#	Time	Left_Front			Right_Front			Left_Aft			Right_Aft			Post			
		X1	Y1	Z1	X2	Y2	Z2	X3	Y3	Z3	X4	Y4	Z4	X5	Y5	Z5	

6126	61.250	-776.36914	42.40294	-631.70618	796.61792	47.31876	-624.83337	-693.03802	-20.40464	504.46970	723.87634	-20.44423	590.80841	6.68952	796.84027	-909.41846	
6127	61.260	-776.55585	42.70943	-631.67236	796.43481	47.41988	-624.82166	-693.19354	-20.45333	504.49622	723.53241	-20.59933	590.98486	6.58818	796.93872	-909.42694	
6128	61.270	-776.69830	42.82548	-631.61176	796.27985	47.44544	-624.86359	-693.40295	-20.54430	504.61417	723.44287	-20.54578	591.10321	6.50571	797.00989	-909.44580	
6129	61.280	-776.80566	42.83640	-631.59515	796.09692	47.45887	-624.77368	-693.43481	-20.53706	504.65839	723.78198	-20.54352	590.38782	6.36152	797.15533	-909.36029	
6130	61.290	-777.04364	42.95319	-631.63544	795.84662	47.45601	-624.83392	-693.65521	-20.49646	504.65414	723.54651	-20.50321	590.41058	6.04901	797.12598	-909.26581	
6131	61.300	-777.25018	42.82841	-631.69958	795.60059	47.42196	-624.80304	-693.78204	-20.51593	504.71558	723.35718	-20.48838	590.35864	5.92263	797.07159	-909.16827	
6132	61.310	-777.43799	42.79296	-631.77368	795.32318	47.37823	-624.85742	-693.97302	-20.48799	504.70767	723.16345	-20.61659	590.30579	5.88340	796.96576	-909.04565	
6133	61.320	-777.58203	42.89735	-631.83734	795.03076	47.37318	-624.89404	-694.13861	-20.40158	504.71478	723.02997	-20.48849	590.34235	5.77399	796.89679	-908.92047	
6134	61.330	-777.78973	42.91480	-631.89325	794.90167	47.30614	-624.87213	-694.31256	-20.36378	504.70456	722.87775	-20.42891	590.34576	5.62756	796.86371	-908.81049	
6135	61.340	-777.97223	42.59573	-631.85413	794.79297	47.29207	-624.87000	-694.55536	-20.30774	504.71786	722.76611	-20.45053	590.35089	5.50393	796.81311	-908.73926	
6136	61.350	-778.09235	42.54844	-631.86218	794.62854	47.34908	-624.90839	-694.80951	-20.22429	504.43182	722.56805	-20.39434	590.33527	5.31198	796.79028	-908.70276	
6137	61.360	-778.28156	42.81231	-631.99573	794.55597	47.29855	-624.94812	-695.04303	-20.30931	504.39725	722.37756	-20.49374	590.29413	5.01048	796.65344	-908.70319	
6138	61.370	-778.38263	42.75658	-631.97223	794.43829	47.25373	-624.97394	-695.29584	-20.25383	504.37082	722.14343	-20.50952	590.33832	4.93505	796.72803	-908.94629	
6139	61.380	-778.53693	42.48188	-631.77930	794.21216	47.29420	-624.94861	-695.50250	-20.29574	504.38538	721.93964	-20.43064	590.32056	4.67245	796.76489	-909.14783	
6140	61.390	-778.75885	42.51613	-631.77655	793.93231	47.31447	-624.91241	-695.63678	-20.23306	504.38470	721.65582	-20.45522	590.33002	4.39238	796.76825	-909.46576	
6141	61.400	-778.97522	42.59896	-631.83679	793.67169	47.33132	-624.98096	-695.78003	-20.24978	504.36917	721.43671	-20.49743	590.31360	4.12021	796.79053	-909.75287	
6142	61.410	-779.13745	42.52538	-631.94348	793.53058	47.27588	-624.99634	-695.87494	-20.18713	504.38278	721.21503	-20.40473	590.30103	3.87256	796.78082	-909.87976	
6143	61.420	-779.38861	42.64574	-632.02264	793.41449	47.25289	-625.02795	-696.02631	-20.13707	504.33786	721.05084	-20.36051	590.26727	3.84960	796.65192	-909.87463	
6144	61.430	-779.60144	42.48443	-632.06683	793.23804	47.18790	-625.01526	-696.27289	-20.01833	504.35788	720.80341	-20.27144	590.30182	3.57408	796.55060	-909.40649	
6145	61.440	-779.79059	42.37215	-632.06702	793.01099	47.06621	-624.93542	-696.52661	-19.91423	504.31451	720.51453	-20.04613	590.34021	3.54874	796.51422	-909.71771	
6146	61.450	-779.98480	42.28457	-632.01257	792.71991	46.95349	-625.03766	-696.79236	-19.87593	504.28882	720.36578	-19.96156	590.32269	3.18175	796.36469	-909.66711	
6147	61.460	-780.19769	42.25116	-632.11639	792.55817	46.83780	-625.04413	-697.02710	-19.83992	504.43927	720.28656	-19.89733	590.30432	2.88033	796.18829	-909.71240	
6148	61.470	-780.46271	42.15033	-632.14294	792.29504	46.67360	-625.16400	-697.24268	-19.76510	504.39325	720.18658	-19.80652	590.28625	2.78350	795.93970	-909.78528	
6149	61.480	-780.68701	42.08209	-632.15002	792.11346	46.54967	-625.19153	-697.42535	-19.78500	504.39081	720.06097	-19.75575	590.26056	2.62122	795.71234	-909.84290	
6150	61.490	-780.96313	41.98617	-632.17218	791.99774	46.47965	-625.22821	-697.56458	-19.77799	504.39688	719.85999	-19.64783	590.23602	2.25974	795.45929	-909.79926	
6151	61.500	-781.17096	41.96240	-632.23004	791.87012	46.42027	-625.23627	-697.74646	-19.73603	504.38162	719.64832	-19.54172	590.21948	2.28010	795.33777	-910.22589	
6152	61.510	-781.40204	41.96831	-632.21338	791.67810	46.33109	-625.28674	-697.94318	-19.62359	504.33859	719.39014	-19.49956	590.15625	2.04202	795.24579	-910.51898	
6153	61.520	-781.63281	41.87280	-632.27100	791.39307	46.23912	-625.33105	-698.07825	-19.58892	504.33640	719.23456	-19.41237	590.15704	1.82599	795.14288	-910.88422	
6154	61.530	-781.75916	41.90609	-632.38721	791.14404	46.14427	-625.27948	-698.24524	-19.48700	504.32916	719.01324	-19.28067	590.13782	1.45323	795.00336	-911.30090	
6155	61.540	-781.94824	41.79903	-632.38660	791.00977	45.99574	-625.29095	-698.43036	-19.38493	504.33463	718.86475	-19.21977	590.14301	1.37569	794.97479	-911.43109	
6156	61.550	-782.06165	41.58031	-632.38965	790.73840	45.89447	-625.36249	-698.56134	-19.30491	504.25375	718.67316	-19.07028	590.08252	1.29321	794.87103	-911.57275	
6157	61.560	-782.22595	41.26344	-632.33667	790.60193	45.72605	-625.35120	-698.76312	-19.23117	504.26675	718.51379	-18.98670	590.02045	0.92221	794.67291	-911.60095	
6158	61.570	-782.41760	41.09105	-632.36987	790.50604	45.58029	-625.37970	-699.03131	-18.99839	503.95584	718.33850	-18.93630	589.93976	0.82481	794.49213	-911.88251	
6159	61.580	-782.65808	40.89369	-632.45728	790.28320	45.45590	-625.51727	-699.22174	-18.85702	503.91953	718.14685	-18.73706	589.89484	0.61890	794.26398	-911.94800	
6160	61.590	-782.85236	40.70071	-632.45129	790.02673	45.23667	-625.66931	-699.31824	-18.76481	504.12552	718.01184	-18.57526	589.88159	0.54050	794.02802	-912.03540	
6161	61.600	-782.85419	40.45031	-632.49902	789.85229	44.99222	-625.73547	-699.41772	-18.56245	504.11243	717.85693	-18.38420	589.87592	0.35266	793.75891	-912.10352	
6162	61.610	-782.97150	40.56461	-632.50775	789.70831	44.85293	-625.78741	-699.76587	-18.47451	503.93604	717.66492	-18.23022	589.83337	0.18013	793.49908	-912.20526	
6163	61.620	-783.14941	40.89808	-632.57788	789.62891	44.75213	-625.76874	-699.96234	-18.36006	503.86676	717.49023	-18.08544	589.82849	-0.18641	793.00623	-912.43091	
6164	61.630	-783.26788	40.43598	-632.52527	789.58093	44.44457	-625.67450	-700.19373	-18.15446	503.84598	717.37415	-17.84864	589.87872	-0.52406	792.81427	-912.84613	
6165	61.640	-783.52863	39.60925	-632.75403	789.38129	43.85889	-625.75043	-700.26172	-18.00738	503.83478	717.22424	-17.70960	589.83319	-0.63563	792.61206	-913.14276	
6166	61.650	-783.65948	39.32321	-632.86646	789.15643	43.86123	-625.82068	-700.41437	-18.08476	503.77707	717.02087	-17.66652	589.80908	-0.52022	792.27972	-913.46887	
6167	61.660	-783.74359	39.34227	-632.88550	788.89093	43.91341	-625.94446	-700.53986	-18.12850	503.76324	716.80591	-17.59940	589.77844	-0.56441	791.93469	-913.98901	
6168	61.670	-783.88068	39.35128	-632.82996	788.98016	43.72440	-625.84589	-700.67932	-17.90856	503.44977	716.71204	-17.63748	589.73676	-0.47978	791.87299	-914.36188	
6169	61.680	-783.93872	39.43234	-632.83356	788.80194	43.56769	-625.90869	-700.72034	-17.76890	503.43271	716.59357	-17.38191	589.76697	-0.55330	791.87048	-914.72284	
6170	61.690	-783.99512	39.19139	-632.87775	788.60376	43.60130	-625.86328	-700.74475	-17.80965	503.79572	716.50635	-17.06150	589.80499	-0.89262	791.65570	-915.00543	
6171	61.700	-784.27942	38.66597	-633.03741	788.39111	43.52709	-625.99286	-700.93463	-17.66562	503.80029	716.31390	-17.03194	589.73761	-1.06676	791.29883	-915.25378	
6172	61.710	-784.54449	38.35264	-633.15057	788.25287	43.04874	-626.16455	-701.17639	-17.75630	503.73596	716.11786	-17.08825	589.64740	-1.41926	790.90509	-915.52112	
6173	61.720	-784.59747	38.38970	-633.18542	788.11810	42.70578	-626.19922	-701.40674	-17.62800	503.70474	715.93030	-16.92340	589.65332	-1.75006	790.69037	-915.61041	
6174	61.730	-784.63464	38.50258	-633.21509	788.06708	42.63357	-626.19025	-701.52325	-17.27588	503.33710	715.48053	-16.77400	590.34735	-1.90648	790.54382	-915.67517	
6175	61.740	-784.70782	38.31710	-633.24261	787.96161	42.62400	-626.21350	-701.66150	-16.80649	503.33041	715.45313	-16.44597	590.07074	-1.98885	790.42981	-915.77399	
6176	61.750	-784.83026	38.00014	-633.33972	787.89703	42.34949	-626.30688	-701.74304	-16.62960	503.20941	715.54517	-16.05786	589.87317	-1.93439	790.18091	-915.85364	
6177	61.760	-785.01056	37.63187	-633.47394	787.82001	41.93371	-626.43402	-701.89050	-16.62017	503.18677	715.54230	-15.98714	589.65070	-2.12362	789.68970	-916.07581	
6178	61.770	-785.12183	37.46978	-633.59741	787.77142	41.72803	-626.43182	-701.98596	-16.56657	503.10703	715.45544	-15.86271	589.52557	-1.95428	789.05853	-916.30292	
6179	61.780	-785.22290	37.43836	-633.59467	787.59070	41.53633	-626.68073	-702.06360	-16.37062	503.12521	715.27838	-15.63112	589.48596	-1.92936	788.77783	-916.61121	
6180	61.790	-785.24615	37.21684	-633.61993	787.54230	41.44621	-626.63129	-702.02802	-16.01445	503.07211	715.18304	-15.43008	589.46368	-1.80720	788.56128	-917.01453	
6181	61.800	-785.43921	37.04296	-633.66583	787.46765	41.33746	-626.71698	-702.07623	-15.81174	503.06085	715.12427	-15.23147	589.38928	-1.87345	788.40607	-917.46667	
6182	61.810	-785.52832	36.68830	-633.68567	787.41980	41.12512	-626.81726	-702.23346	-15.75990	503.03946	715.06537	-15.24787	589.32166	-2.23316	788.27692	-918.10217	
6183	61.820	-785.61102	36.58196	-633.74603	787.40723	40.95826	-626.80292	-702.35382	-15.85575	502.94992	714.93677	-15.22984	589.25000	-2.59003	788.02301	-918.42804	
6184	61.830	-785.61481	36.47665	-633.75977	787.38416	40.78418	-626.76825	-702.38293	-15.75063	502.91464	714.90521	-15.07238	589.23132	-2.42010	787.80652	-918.96875	
6185	61.840	-785.67151	36.39511	-633.81018	787.30017	40.69467	-626.80176	-702.42719	-15.53400	502.89905	714.78180	-14.91832	589.26208	-2.32889	787.50500	-919.21112	
6186	61.850	-785.62274	36.10145	-633.89996	787.27930	40.52952	-626.76544	-702.43469	-15.44855	502.95337	714.72986	-14.72098	589.23315	-2.40370	787.28815	-919.51379	
6187	61.860	-785.68903	35.98096	-634.00629	787.17578	40.45896	-626.83624	-702.55029	-15.34293	502.93463	714.69763	-14.59869	589.18262	-2.52610	787.02771	-919.71851	
6188	61.870	-785.70184	35.88132	-634.22308	787.13489	40.21384	-626.92511	-702.64819	-15.28205	502.81821	714.66235	-14.59628	589.08405	-2.54579	786.60004	-919.75500	
6189	61.880	-785.67529	35.64048	-634.44733	787.03748	39.85852	-627.06201	-702.72510	-15.19887	502.81363	714.52533	-14.50583	589.02765	-2.68092	786.32361	-919.85059	
6190	61.890	-785.68530	35.38043	-634.45557	787.01453	39.61992	-627.10907	-702.77008	-15.06549	502.78629	714.50085	-14.25107	588.99347	-2.63091	786.08673	-919.84552	
6191	61.900	-785.77258	35.26074	-634.49353	786.98096	39.57074	-627.12054	-702.81824	-14.81279	502.76154	714.53937	-13.99661	588.94135	-2.63340	785.88336	-919.98981	
6192	61.910	-785.84241	34.92239	-634.45667	786.92682	39.42197	-627.22272	-702.86060	-14.68043	502.66513	714.57062	-13.88336	588.86975	-2.61542	785.65564	-920.10101	
6193	61.920	-785.88354	34.73198	-634.43152	786.84778	39.18629	-627.37708	-702.92010	-14.60476	502.59625	714.51947	-13.79651	588.79865	-2.73702	785.40839	-920.21600	
6194	61.930	-785.94006	34.72200	-634.46637	786.81219	39.01438	-627.39362	-702.97778	-14.52936	502.59470	714.41992	-13.64563	588.77118	-2.82215	785.16736	-920.35864	
6195	61.940	-785.98242	34.54092	-634.48639	786.80951	38.95885	-627.36548	-703.01880	-14.34027	502.50476	714.33344	-13.41583	588.77783	-2.86488	784.86542	-920.63245	
6196	61.950	-786.05566	34.35529	-634.46313	786.83002	38.87729	-627.35138	-703.04999	-14.26312	502.48611	714.30951	-13.22609	588.75214	-3.07706	784.78149	-921.03949	
6197	61.960	-786.09564	34.23275	-634.46509	786.77588	38.79765	-627.32037	-703.13672	-14.14414	502.44705	714.28967	-13.13363	588.69879	-3.19597	784.69794	-921.48615	
